<?xml version="1.0" encoding="UTF-8"?>
<svg width="1200" height="1200" viewBox="0 0 1200 1200" xmlns="http://www.w3.org/2000/svg">
  <defs>
    <linearGradient id="g1" x1="0" x2="1" y1="0" y2="1">
      <stop offset="0%" stop-color="#9647ff" />
      <stop offset="100%" stop-color="#ff8ab3" />
    </linearGradient>
    <linearGradient id="g2" x1="0" x2="1" y1="0" y2="1">
      <stop offset="0%" stop-color="#5ae2ff" />
      <stop offset="100%" stop-color="#4b2e88" />
    </linearGradient>
  </defs>
  <rect width="1200" height="1200" rx="48" ry="48" fill="url(#g1)" />

  <g transform="translate(80,120)">
    <rect x="40" y="40" width="520" height="480" rx="20" ry="20" fill="#fff" opacity="0.08" />
    <rect x="620" y="120" width="420" height="360" rx="18" ry="18" fill="#fff" opacity="0.06" />

    <g transform="translate(70,70)">
      <circle cx="270" cy="160" r="140" fill="url(#g2)" opacity="0.95" />
      <rect x="110" y="300" width="350" height="160" rx="16" ry="16" fill="#ffffff" opacity="0.12" />
      <g transform="translate(170,330)">
        <rect x="0" y="0" width="60" height="60" rx="8" ry="8" fill="#ffdbf0"/>
        <rect x="80" y="0" width="160" height="60" rx="8" ry="8" fill="#fff" opacity="0.08"/>
      </g>
    </g>

    <g transform="translate(630,160)">
      <rect x="0" y="0" width="200" height="120" rx="12" ry="12" fill="#ffffff" opacity="0.12"/>
      <rect x="230" y="0" width="140" height="120" rx="12" ry="12" fill="#ffffff" opacity="0.08"/>
      <rect x="0" y="140" width="360" height="30" rx="8" ry="8" fill="#ffffff" opacity="0.06"/>
    </g>

    <g transform="translate(120,540)">
      <rect x="0" y="0" width="320" height="160" rx="18" ry="18" fill="#fff" opacity="0.06" />
      <rect x="360" y="0" width="160" height="160" rx="18" ry="18" fill="#fff" opacity="0.04" />
    </g>
  </g>

  <g transform="translate(100,100)">
    <text x="50" y="1080" font-size="36" font-family="Poppins, Arial" fill="#ffffff" opacity="0.9">LAZZAPPEE — Shop Everything</text>
  </g>
</svg>
